<svg width="16" height="16" viewBox="0 0 16 16" fill="none" xmlns="http://www.w3.org/2000/svg">
<path fill-rule="evenodd" clip-rule="evenodd" d="M13.875 8C13.875 8.20711 13.7071 8.375 13.5 8.375L2.5 8.375C2.29289 8.375 2.125 8.20711 2.125 8C2.125 7.79289 2.29289 7.625 2.5 7.625L13.5 7.625C13.7071 7.625 13.875 7.79289 13.875 8Z" stroke="#25293D" stroke-linecap="round" stroke-linejoin="round"/>
<path fill-rule="evenodd" clip-rule="evenodd" d="M8.73484 12.7652C8.58839 12.6187 8.58839 12.3813 8.73484 12.2348L12.9697 8L8.73484 3.76517C8.58839 3.61872 8.58839 3.38128 8.73484 3.23483C8.88128 3.08839 9.11872 3.08839 9.26516 3.23483L13.7652 7.73484C13.9116 7.88128 13.9116 8.11872 13.7652 8.26516L9.26516 12.7652C9.11872 12.9116 8.88128 12.9116 8.73484 12.7652Z" stroke="#25293D" stroke-linecap="round" stroke-linejoin="round"/>
</svg>
