<?xml version="1.0" encoding="utf-8"?>
<!-- Svg Vector Icons : http://www.onlinewebfonts.com/icon -->
<!DOCTYPE svg PUBLIC "-//W3C//DTD SVG 1.1//EN" "http://www.w3.org/Graphics/SVG/1.1/DTD/svg11.dtd">
<svg version="1.1" xmlns="http://www.w3.org/2000/svg" xmlns:xlink="http://www.w3.org/1999/xlink" x="0px" y="0px" viewBox="0 0 1000 1000" enable-background="new 0 0 1000 1000" xml:space="preserve">
<metadata> Svg Vector Icons : http://www.onlinewebfonts.com/icon </metadata>
<g><g transform="translate(0.000000,512.000000) scale(0.100000,-0.100000)"><path d="M8768.2,4993.3c-51.7-17.2-675.5-627.7-2851.5-2803.7L3132.1-591.1l-287.1-853.5c-156.9-470.8-289-861.2-292.8-870.8c-3.8-7.7,384.7,114.8,861.2,273.7l866.9,287.1l2769.2,2767.3c3033.3,3031.4,2863,2847.7,2841.9,3058.2c-5.8,53.6-24.9,128.2-42.1,162.7c-53.6,105.3-656.4,696.6-755.9,742.5C8999.7,5018.2,8877.3,5023.9,8768.2,4993.3z"/><path d="M1218.4,3760.8c-72.7-15.3-223.9-72.7-333-126.3c-174.2-82.3-223.9-118.7-367.4-262.2c-143.5-143.5-179.9-193.3-262.2-367.4C85.4,2656.6,96.9,2913,102.6-562.4l5.7-3062l44-134c88-256.4,189.5-426.8,367.4-602.8c179.9-181.8,356-287.1,612.4-367.5l143.5-44h3109.9h3109.9l143.5,44c254.6,80.4,432.5,185.6,612.4,367.5c176.1,176.1,281.3,348.3,367.5,602.8l44,134l5.8,2698.4l3.8,2698.4l-459.3-459.3l-459.3-459.3l-3.8-2181.7l-5.8-2181.7l-42.1-76.5c-47.8-90-141.6-181.8-235.4-231.6c-65.1-34.5-178-36.4-3081.2-36.4c-2903.2,0-3016.1,1.9-3081.2,36.4c-93.8,49.8-187.5,141.6-235.4,231.6l-42.1,76.5v3014.2c0,2903.2,1.9,3016.1,36.4,3081.2c49.8,93.8,141.6,187.5,231.6,235.4l76.6,42.1l2181.7,5.7l2181.7,3.8l459.3,459.3l459.3,459.3l-2650.6-1.9C1750.4,3787.6,1331.3,3783.8,1218.4,3760.8z"/></g></g>
</svg>